<svg version="1.1" id="Layer_1" xmlns="http://www.w3.org/2000/svg" xmlns:xlink="http://www.w3.org/1999/xlink" x="0px" y="0px"
	 width="100%" viewBox="0 0 129 144" enable-background="new 0 0 129 144" xml:space="preserve">
<path fill="#FBFCF6" opacity="1.000000" stroke="none" 
	d="
M1.000000,144.000000 
	C1.000000,140.638718 1.000000,137.277420 1.359559,133.458221 
	C2.437108,133.015350 3.155098,133.030396 3.947216,132.996674 
	C4.021343,132.947906 4.197090,132.923279 4.184296,133.155609 
	C4.243260,133.718628 4.435042,133.949707 4.809599,134.388840 
	C5.488503,135.508987 6.104653,136.321442 6.823226,137.361710 
	C7.118837,137.884201 7.387476,138.069458 7.915390,138.417664 
	C9.073233,139.108292 10.047251,139.526581 11.401352,140.110413 
	C37.518711,140.362183 63.255989,140.448395 89.452919,140.632690 
	C98.630005,140.525284 107.347435,140.319839 116.344643,140.142395 
	C117.116241,139.929794 117.608070,139.689163 118.343445,139.357117 
	C118.714737,139.148438 118.842484,139.031143 119.313011,138.826843 
	C123.372040,136.009888 124.319878,131.979141 124.054390,127.820511 
	C123.631699,121.199738 122.689316,114.612129 122.006966,107.673164 
	C121.739601,106.543884 121.431999,105.751930 121.089706,104.591507 
	C121.036797,103.483025 121.018555,102.743027 121.140076,101.630692 
	C120.879555,100.101868 120.479256,98.945389 120.068924,97.390915 
	C120.039284,95.661385 120.019676,94.329857 120.182404,92.765526 
	C120.242012,91.356171 120.119301,90.179604 120.040131,88.669098 
	C119.688469,87.556259 119.293282,86.777367 118.956772,85.626709 
	C119.007568,84.502640 118.999687,83.750320 119.173340,82.748535 
	C118.924431,80.937874 118.493988,79.376671 118.059029,77.413803 
	C118.031540,75.673187 118.008568,74.334236 118.167328,72.697174 
	C118.135880,69.451950 118.090797,66.480782 117.672806,63.563026 
	C116.919182,58.302383 115.942352,53.073719 115.053093,47.448181 
	C115.028854,46.042130 115.010292,45.019604 115.174911,43.762016 
	C114.979912,42.464661 114.601715,41.402370 114.232224,39.991058 
	C112.929176,38.806820 111.637695,37.307060 110.301712,37.266308 
	C106.878143,37.161869 103.434792,37.706009 99.586815,37.904465 
	C93.053528,37.668873 92.385269,36.957699 92.018578,29.665691 
	C91.643600,22.209026 88.634583,16.199600 82.292641,11.536257 
	C78.116570,9.332406 74.156052,7.423350 70.623169,5.302216 
	C73.143311,4.727042 75.233925,4.062431 77.328613,4.049319 
	C91.970573,3.957660 106.616814,4.178889 121.253868,3.895689 
	C125.841171,3.806933 127.119171,5.108178 127.101784,9.723368 
	C126.931969,54.815067 126.999794,99.907661 127.000000,145.000000 
	C85.645775,145.000000 44.291542,145.000000 2.358682,144.782455 
	C1.578499,144.295883 1.318483,144.107574 1.000000,144.000000 
z"/>
<path fill="#FBFCF6" opacity="1.000000" stroke="none" 
	d="
M1.000000,126.000000 
	C1.000000,85.645775 1.000000,45.291542 1.468657,4.469221 
	C18.183365,4.001040 34.429901,3.939328 50.674927,4.068509 
	C53.061756,4.087490 55.441376,5.012942 57.483368,5.671201 
	C55.409508,6.509194 53.676617,7.194968 51.652798,7.900110 
	C50.890419,8.231961 50.418968,8.544443 49.632996,8.909479 
	C48.490913,9.595601 47.663349,10.229170 46.900509,10.889230 
	C46.965233,10.915720 46.869980,10.813296 46.575916,10.892872 
	C45.559212,11.660409 44.836575,12.348370 43.809292,13.188051 
	C38.011398,18.882431 34.995720,25.540394 34.887699,33.352200 
	C34.839890,36.810040 33.408516,38.158703 30.035042,37.801537 
	C28.559332,37.645302 27.053303,37.775269 25.561043,37.775517 
	C12.171546,37.777763 12.164274,37.784798 11.870472,51.477486 
	C11.866954,51.641460 11.909056,51.806412 11.714577,52.309532 
	C11.352160,55.096806 11.205029,57.545456 10.955175,60.313141 
	C10.872268,61.075447 10.892085,61.518723 10.746188,62.316818 
	C10.395913,65.114021 10.211353,67.556412 9.921503,70.312653 
	C9.834259,71.063934 9.852305,71.501350 9.700617,72.286591 
	C9.372961,74.754753 9.215040,76.875099 8.955545,79.314552 
	C8.875030,80.076538 8.896089,80.519424 8.699604,81.300003 
	C8.334390,84.090500 8.186718,86.543304 7.938214,89.316635 
	C7.855389,90.081467 7.873395,90.525787 7.726056,91.306808 
	C7.435097,93.424408 7.309484,95.205307 7.066934,97.400909 
	C6.568157,102.185997 6.186319,106.556389 5.653574,111.307983 
	C4.936758,116.461639 4.370848,121.234100 3.454710,126.003891 
	C2.402988,126.000816 1.701494,126.000404 1.000000,126.000000 
z"/>
<path fill="#FFFFFE" opacity="1.000000" stroke="none" 
	d="
M57.824333,5.518981 
	C55.441376,5.012942 53.061756,4.087490 50.674927,4.068509 
	C34.429901,3.939328 18.183365,4.001040 1.468657,4.000564 
	C0.076872,0.561906 2.319184,0.974974 4.500018,0.976622 
	C46.333324,1.008237 88.166664,1.000000 130.000000,1.000000 
	C130.000000,47.833332 130.013123,94.666687 129.927170,141.499863 
	C129.924927,142.717209 131.533127,145.471313 127.500000,145.000000 
	C126.999794,99.907661 126.931969,54.815067 127.101784,9.723368 
	C127.119171,5.108178 125.841171,3.806933 121.253868,3.895689 
	C106.616814,4.178889 91.970573,3.957660 77.328613,4.049319 
	C75.233925,4.062431 73.143311,4.727042 70.228363,5.280668 
	C65.545395,5.487127 61.684864,5.503054 57.824333,5.518981 
z"/>
<path fill="#FFFFFE" opacity="1.000000" stroke="none" 
	d="
M1.000000,126.436523 
	C1.701494,126.000404 2.402988,126.000816 3.482298,126.443008 
	C3.864439,128.938339 3.868764,130.991882 3.873089,133.045441 
	C3.155098,133.030396 2.437108,133.015350 1.359559,133.000153 
	C1.000000,130.957687 1.000000,128.915359 1.000000,126.436523 
z"/>
<path fill="#FFFFFE" opacity="1.000000" stroke="none" 
	d="
M1.000000,144.500000 
	C1.318483,144.107574 1.578499,144.295883 1.890024,144.782455 
	C1.666667,145.000000 1.333333,145.000000 1.000000,144.500000 
z"/>
<path fill="#1AB4E2" opacity="1.000000" stroke="none" 
	d="
M118.898094,85.998466 
	C119.293282,86.777367 119.688469,87.556259 119.779785,88.879593 
	C119.650635,90.615471 119.825356,91.806892 120.000076,92.998322 
	C120.019676,94.329857 120.039284,95.661385 120.046814,97.773834 
	C120.356598,99.704170 120.678452,100.853600 121.000313,102.003029 
	C121.018555,102.743027 121.036797,103.483025 120.716400,104.605377 
	C119.221260,105.525421 117.745712,105.774139 116.956932,106.644928 
	C107.679169,116.887436 98.499367,127.218773 89.325600,137.554962 
	C89.042076,137.874405 89.102470,138.499100 88.533615,138.987366 
	C79.710228,138.990524 71.355743,138.987778 63.005596,138.620163 
	C66.627357,134.192581 70.313591,130.188080 73.825813,126.036346 
	C75.097626,124.532959 75.952995,122.677284 77.459511,120.911102 
	C81.002716,120.828560 84.140312,121.166367 87.148155,120.688133 
	C89.296097,120.346619 91.269844,118.909546 93.680756,117.842789 
	C94.365479,114.482918 94.690765,111.241592 95.359283,107.963821 
	C100.532440,102.829048 105.229332,97.594643 110.247299,92.688644 
	C112.836380,90.157341 115.996170,88.209785 118.898094,85.998466 
z"/>
<path fill="#17C9DE" opacity="1.000000" stroke="none" 
	d="
M82.508186,11.831053 
	C88.634583,16.199600 91.643600,22.209026 92.018578,29.665691 
	C92.385269,36.957699 93.053528,37.668873 99.550156,38.260784 
	C97.244354,42.341969 94.492355,45.931576 91.913055,49.641262 
	C90.760941,51.298298 89.955803,53.196587 88.525314,54.990166 
	C79.038094,54.992752 70.018738,54.990555 61.004730,54.619560 
	C62.345703,51.822559 63.733540,49.421307 65.004166,46.959557 
	C66.716309,43.642380 68.338173,40.278610 70.460732,36.857758 
	C75.524345,36.780685 80.125999,36.780685 84.635651,36.780685 
	C85.882088,28.112822 83.757706,23.415739 75.995758,15.996525 
	C78.394638,14.501799 80.451416,13.166425 82.508186,11.831053 
z"/>
<path fill="#17C0E0" opacity="1.000000" stroke="none" 
	d="
M88.993195,54.985382 
	C89.955803,53.196587 90.760941,51.298298 91.913055,49.641262 
	C94.492355,45.931576 97.244354,42.341969 99.962692,38.347137 
	C103.434792,37.706009 106.878143,37.161869 110.301712,37.266308 
	C111.637695,37.307060 112.929176,38.806820 114.165451,40.393082 
	C114.390564,42.095112 114.691147,43.046093 114.991730,43.997074 
	C115.010292,45.019604 115.028854,46.042130 115.034546,47.917519 
	C115.014923,52.180298 115.008179,55.590218 114.807449,59.272736 
	C113.014534,61.828625 111.527451,64.201225 109.791504,66.375099 
	C106.898445,69.997993 103.846001,73.493607 100.523834,76.923264 
	C98.059654,71.518044 96.062790,66.173889 93.734024,60.978500 
	C92.921394,59.165550 91.289955,57.719624 89.920273,55.867798 
	C89.536461,55.414806 89.264824,55.200096 88.993195,54.985382 
z"/>
<path fill="#16C8DE" opacity="1.000000" stroke="none" 
	d="
M3.947216,132.996674 
	C3.868764,130.991882 3.864439,128.938339 3.832526,126.445671 
	C4.370848,121.234100 4.936758,116.461639 5.948191,111.512619 
	C7.203432,113.597023 8.572790,114.738914 10.792925,113.056038 
	C13.257416,111.187943 15.589428,109.140694 17.931355,107.116188 
	C22.968117,102.762085 27.974237,98.372528 33.001286,94.466263 
	C33.007961,101.955063 33.006248,108.975090 32.639156,116.000992 
	C28.660666,118.777374 24.951624,121.432816 21.457359,124.345886 
	C16.462784,128.509720 11.625352,132.862061 6.720806,137.133896 
	C6.104653,136.321442 5.488503,135.508987 4.997882,134.285614 
	C4.814639,133.557556 4.505866,133.240417 4.197091,132.923279 
	C4.197090,132.923279 4.021343,132.947906 3.947216,132.996674 
z"/>
<path fill="#18B9E1" opacity="1.000000" stroke="none" 
	d="
M100.860664,77.042816 
	C103.846001,73.493607 106.898445,69.997993 109.791504,66.375099 
	C111.527451,64.201225 113.014534,61.828625 115.095268,59.560989 
	C116.379921,64.049530 117.182762,68.522408 117.985603,72.995293 
	C118.008568,74.334236 118.031540,75.673187 118.040131,77.814255 
	C118.347771,80.076920 118.669792,81.537460 118.991806,82.998001 
	C118.999687,83.750320 119.007568,84.502640 118.956772,85.626709 
	C115.996170,88.209785 112.836380,90.157341 110.247299,92.688644 
	C105.229332,97.594643 100.532440,102.829048 95.353729,107.496124 
	C94.969276,101.894150 94.933586,96.723434 95.105728,91.307083 
	C100.325394,87.640068 100.917320,82.469765 100.860664,77.042816 
z"/>
<path fill="#16C2DF" opacity="1.000000" stroke="none" 
	d="
M6.823229,137.361710 
	C11.625352,132.862061 16.462784,128.509720 21.457359,124.345886 
	C24.951624,121.432816 28.660666,118.777374 32.647820,116.345146 
	C33.642384,117.458267 34.262913,118.233109 35.069454,119.369858 
	C39.503071,120.150818 43.750668,120.569847 47.994072,121.355698 
	C45.947250,124.171799 44.013138,126.722740 41.836308,129.046280 
	C38.649757,132.447601 35.289257,135.685928 31.534172,138.997620 
	C24.354385,138.992447 17.643314,138.983383 10.697558,138.720734 
	C9.552437,138.359863 8.642001,138.252594 7.731565,138.145325 
	C7.387476,138.069458 7.118837,137.884201 6.823229,137.361710 
z"/>
<path fill="#1AADE3" opacity="1.000000" stroke="none" 
	d="
M89.002533,138.981476 
	C89.102470,138.499100 89.042076,137.874405 89.325600,137.554962 
	C98.499367,127.218773 107.679169,116.887436 116.956932,106.644928 
	C117.745712,105.774139 119.221260,105.525421 120.751076,104.973854 
	C121.431999,105.751930 121.739601,106.543884 121.726654,107.961792 
	C121.282227,110.728683 120.549911,113.065147 121.161942,114.969574 
	C122.410820,118.855614 121.115494,121.252251 118.563980,124.184753 
	C114.604469,128.735474 111.479218,134.012070 107.532021,138.987549 
	C101.041786,139.000992 95.019821,139.007812 88.998978,139.007263 
	C89.000099,138.999893 89.002533,138.981476 89.002533,138.981476 
z"/>
<path fill="#17D6DC" opacity="1.000000" stroke="none" 
	d="
M82.292641,11.536257 
	C80.451416,13.166425 78.394638,14.501799 75.648209,15.913242 
	C68.492485,12.371125 61.818569,12.296131 54.994392,14.422215 
	C54.946732,11.497075 55.888271,8.475368 51.943726,7.880742 
	C53.676617,7.194968 55.409508,6.509194 57.483368,5.671201 
	C61.684864,5.503054 65.545395,5.487127 69.800720,5.492747 
	C74.156052,7.423350 78.116570,9.332406 82.292641,11.536257 
z"/>
<path fill="#1DA8E4" opacity="1.000000" stroke="none" 
	d="
M108.000305,138.980927 
	C111.479218,134.012070 114.604469,128.735474 118.563980,124.184753 
	C121.115494,121.252251 122.410820,118.855614 121.161942,114.969574 
	C120.549911,113.065147 121.282227,110.728683 121.686417,108.299126 
	C122.689316,114.612129 123.631699,121.199738 124.054390,127.820511 
	C124.319878,131.979141 123.372040,136.009888 119.169510,138.686234 
	C118.488785,138.904572 118.294334,139.176544 118.099884,139.448532 
	C117.608070,139.689163 117.116241,139.929794 116.077461,139.834091 
	C113.020439,139.325485 110.510368,139.153214 108.000305,138.980927 
z"/>
<path fill="#00ABDE" opacity="1.000000" stroke="none" 
	d="
M10.932244,138.974335 
	C17.643314,138.983383 24.354385,138.992447 32.002472,139.002014 
	C42.960079,138.996689 52.980675,138.990860 63.001266,138.985016 
	C71.355743,138.987778 79.710228,138.990524 88.533615,138.987366 
	C89.002533,138.981476 89.000099,138.999893 89.000000,139.260406 
	C88.997688,139.858841 88.995476,140.196732 88.993263,140.534637 
	C63.255989,140.448395 37.518711,140.362183 11.378180,139.867859 
	C10.974923,139.459763 10.932244,138.974335 10.932244,138.974335 
z"/>
<path fill="#019FE1" opacity="1.000000" stroke="none" 
	d="
M89.452919,140.632690 
	C88.995476,140.196732 88.997688,139.858841 88.998886,139.267792 
	C95.019821,139.007812 101.041786,139.000992 107.532028,138.987549 
	C110.510368,139.153214 113.020439,139.325485 115.797684,139.806061 
	C107.347435,140.319839 98.630005,140.525284 89.452919,140.632690 
z"/>
<path fill="#10B4DF" opacity="1.000000" stroke="none" 
	d="
M118.167328,72.697174 
	C117.182762,68.522408 116.379921,64.049530 115.289253,59.288391 
	C115.008179,55.590218 115.014923,52.180298 115.040215,48.301041 
	C115.942352,53.073719 116.919182,58.302383 117.672806,63.563026 
	C118.090797,66.480782 118.135880,69.451950 118.167328,72.697174 
z"/>
<path fill="#10B4DF" opacity="1.000000" stroke="none" 
	d="
M120.182404,92.765526 
	C119.825356,91.806892 119.650635,90.615471 119.736252,89.213547 
	C120.119301,90.179604 120.242012,91.356171 120.182404,92.765526 
z"/>
<path fill="#10B4DF" opacity="1.000000" stroke="none" 
	d="
M119.173340,82.748535 
	C118.669792,81.537460 118.347771,80.076920 118.044647,78.215927 
	C118.493988,79.376671 118.924431,80.937874 119.173340,82.748535 
z"/>
<path fill="#10B4DF" opacity="1.000000" stroke="none" 
	d="
M115.174919,43.762016 
	C114.691147,43.046093 114.390564,42.095112 114.156754,40.742104 
	C114.601715,41.402370 114.979912,42.464661 115.174919,43.762016 
z"/>
<path fill="#36C0E3" opacity="1.000000" stroke="none" 
	d="
M10.697558,138.720734 
	C10.932244,138.974335 10.974923,139.459763 10.998096,139.702301 
	C10.047251,139.526581 9.073233,139.108292 7.915390,138.417664 
	C8.642001,138.252594 9.552437,138.359863 10.697558,138.720734 
z"/>
<path fill="#1AADE3" opacity="1.000000" stroke="none" 
	d="
M121.140076,101.630692 
	C120.678452,100.853600 120.356598,99.704170 120.056847,98.171829 
	C120.479256,98.945389 120.879555,100.101868 121.140076,101.630692 
z"/>
<path fill="#36C0E3" opacity="1.000000" stroke="none" 
	d="
M4.184297,133.155609 
	C4.505866,133.240417 4.814639,133.557556 4.935129,133.977936 
	C4.435042,133.949707 4.243260,133.718628 4.184297,133.155609 
z"/>
<path fill="#019FE1" opacity="1.000000" stroke="none" 
	d="
M118.343437,139.357117 
	C118.294334,139.176544 118.488785,138.904572 118.826736,138.773224 
	C118.842484,139.031143 118.714737,139.148438 118.343437,139.357117 
z"/>
<path fill="#14DEDB" opacity="1.000000" stroke="none" 
	d="
M51.652798,7.900110 
	C55.888271,8.475368 54.946732,11.497075 54.711628,14.617543 
	C51.664139,17.489298 48.901493,19.769892 45.755356,22.100471 
	C44.962997,23.253031 44.554134,24.355606 44.107151,25.831619 
	C43.731430,29.742178 43.393826,33.279297 42.880196,37.108505 
	C35.797321,45.094357 29.011795,52.902351 21.926020,60.427639 
	C18.945421,63.593128 15.330397,66.161240 12.003227,68.578995 
	C11.639085,66.092041 11.275494,64.027023 10.911902,61.961998 
	C10.892085,61.518723 10.872268,61.075447 11.328402,60.226814 
	C11.846190,57.204609 11.888027,54.587757 11.929863,51.970909 
	C11.909056,51.806412 11.866954,51.641460 11.870472,51.477486 
	C12.164274,37.784798 12.171546,37.777763 25.561043,37.775517 
	C27.053303,37.775269 28.559332,37.645302 30.035042,37.801537 
	C33.408516,38.158703 34.839890,36.810040 34.887699,33.352200 
	C34.995720,25.540394 38.011398,18.882431 44.163223,13.169185 
	C45.504528,12.270164 46.187256,11.541731 46.869980,10.813297 
	C46.869980,10.813296 46.965233,10.915720 47.276028,10.925322 
	C48.373722,10.242257 49.160618,9.549591 49.947517,8.856926 
	C50.418968,8.544443 50.890419,8.231961 51.652798,7.900110 
z"/>
<path fill="#15D7DC" opacity="1.000000" stroke="none" 
	d="
M12.003778,69.000916 
	C15.330397,66.161240 18.945421,63.593128 21.926020,60.427639 
	C29.011795,52.902351 35.797321,45.094357 43.330101,37.084740 
	C46.970100,36.824890 49.984165,36.880886 52.993500,37.313690 
	C52.171257,39.447292 51.496132,41.289097 50.508045,42.944046 
	C48.082745,47.006187 45.513245,50.982235 42.776245,55.114960 
	C42.361217,55.516506 42.171700,55.796013 41.659580,56.167000 
	C40.898483,56.196709 40.459984,56.134930 39.871082,55.834854 
	C39.132427,55.771702 38.544170,55.946854 37.678925,56.309624 
	C35.609673,59.661591 33.677769,62.756580 32.062523,66.008842 
	C30.272434,69.613144 28.771719,73.361160 26.768295,77.037880 
	C25.129585,77.915031 23.805584,78.725296 22.616560,79.700172 
	C18.057068,83.438477 13.540900,87.229614 8.729270,90.993484 
	C8.263783,90.980659 8.077592,90.975380 7.891402,90.970108 
	C7.873395,90.525787 7.855389,90.081467 8.313367,89.231796 
	C8.831951,86.205063 8.874549,83.583687 8.917147,80.962311 
	C8.896089,80.519424 8.875030,80.076538 9.324660,79.231682 
	C9.820351,76.532730 9.845351,74.235756 9.870352,71.938774 
	C9.852305,71.501350 9.834259,71.063934 10.215822,70.291901 
	C11.078214,69.638496 11.540996,69.319710 12.003778,69.000916 
z"/>
<path fill="#17CFDD" opacity="1.000000" stroke="none" 
	d="
M9.008566,91.001038 
	C13.540900,87.229614 18.057068,83.438477 22.616560,79.700172 
	C23.805584,78.725296 25.129585,77.915031 26.775885,77.460526 
	C27.024168,82.879509 28.164112,87.383690 32.074745,91.174896 
	C32.386375,92.338158 32.689636,93.167824 32.992897,93.997482 
	C27.974237,98.372528 22.968117,102.762085 17.931355,107.116188 
	C15.589428,109.140694 13.257416,111.187943 10.792925,113.056038 
	C8.572790,114.738914 7.203432,113.597023 6.099097,111.131409 
	C6.186319,106.556389 6.568157,102.185997 7.425965,97.308014 
	C8.270812,94.867294 8.639688,92.934166 9.008566,91.001038 
z"/>
<path fill="#0CD7D9" opacity="1.000000" stroke="none" 
	d="
M8.699604,81.300003 
	C8.874549,83.583687 8.831951,86.205063 8.414200,88.911278 
	C8.186718,86.543304 8.334390,84.090500 8.699604,81.300003 
z"/>
<path fill="#0CD7D9" opacity="1.000000" stroke="none" 
	d="
M12.003227,68.578995 
	C11.540996,69.319710 11.078214,69.638496 10.321114,69.978043 
	C10.211353,67.556412 10.395913,65.114021 10.746188,62.316818 
	C11.275494,64.027023 11.639085,66.092041 12.003227,68.578995 
z"/>
<path fill="#0CD7D9" opacity="1.000000" stroke="none" 
	d="
M11.714576,52.309532 
	C11.888027,54.587757 11.846190,57.204609 11.431127,59.907784 
	C11.205029,57.545456 11.352160,55.096806 11.714576,52.309532 
z"/>
<path fill="#0CD7D9" opacity="1.000000" stroke="none" 
	d="
M9.700617,72.286591 
	C9.845351,74.235756 9.820351,76.532730 9.426235,78.912582 
	C9.215040,76.875099 9.372961,74.754753 9.700617,72.286591 
z"/>
<path fill="#0CD7D9" opacity="1.000000" stroke="none" 
	d="
M8.729270,90.993484 
	C8.639688,92.934166 8.270812,94.867294 7.542903,96.893318 
	C7.309484,95.205307 7.435097,93.424408 7.726056,91.306808 
	C8.077592,90.975380 8.263783,90.980659 8.729270,90.993484 
z"/>
<path fill="#17D6DC" opacity="1.000000" stroke="none" 
	d="
M46.575916,10.892873 
	C46.187256,11.541731 45.504528,12.270164 44.467865,13.017464 
	C44.836575,12.348370 45.559212,11.660409 46.575916,10.892873 
z"/>
<path fill="#17D6DC" opacity="1.000000" stroke="none" 
	d="
M49.632996,8.909478 
	C49.160618,9.549591 48.373722,10.242257 47.211304,10.898831 
	C47.663349,10.229170 48.490913,9.595601 49.632996,8.909478 
z"/>
<path fill="#F1FAF5" opacity="1.000000" stroke="none" 
	d="
M32.066380,90.841293 
	C28.164112,87.383690 27.024168,82.879509 27.152588,77.469254 
	C28.771719,73.361160 30.272434,69.613144 32.062523,66.008842 
	C33.677769,62.756580 35.609673,59.661591 38.023293,56.358444 
	C39.103596,56.170815 39.562542,56.121986 40.021484,56.073158 
	C40.459984,56.134930 40.898483,56.196709 42.124908,56.239628 
	C58.619373,56.182545 74.325912,56.144314 90.032455,56.106083 
	C91.289955,57.719624 92.921394,59.165550 93.734024,60.978500 
	C96.062790,66.173889 98.059654,71.518044 100.523834,76.923264 
	C100.917320,82.469765 100.325394,87.640068 94.719238,91.565308 
	C93.857040,100.699890 93.589180,109.330612 93.321320,117.961334 
	C91.269844,118.909546 89.296097,120.346619 87.148155,120.688133 
	C84.140312,121.166367 81.002716,120.828560 76.995392,120.840904 
	C66.712852,120.890930 57.355560,120.939903 47.998268,120.988876 
	C43.750668,120.569847 39.503071,120.150818 35.092834,118.901215 
	C34.904339,110.653999 35.045643,103.230164 34.726509,95.826157 
	C34.653378,94.129471 32.995121,92.501106 32.066380,90.841293 
M83.140480,62.299774 
	C69.877571,62.269199 56.614384,62.195583 43.352215,62.280735 
	C42.147884,62.288467 40.950104,63.316608 39.310787,64.436249 
	C37.592007,68.932404 35.972588,73.469879 34.124741,77.912354 
	C32.482986,81.859344 33.549393,84.927399 37.196461,86.663544 
	C40.771637,88.365471 44.452034,87.504898 46.210129,83.886703 
	C48.029556,80.142281 50.185036,80.780472 52.977364,82.924545 
	C54.733051,84.344078 56.407299,86.850624 58.258945,86.989349 
	C65.174347,87.507462 72.863289,89.404518 77.746826,81.149063 
	C79.054626,82.079315 80.671394,82.769974 81.612999,83.984207 
	C84.579941,87.810181 88.636223,86.905220 91.903442,85.688812 
	C95.041656,84.520439 95.242958,81.121857 93.899101,77.953987 
	C92.345100,74.290749 90.905113,70.579140 89.282326,66.248718 
	C88.926537,65.472542 88.570747,64.696365 88.122505,63.367981 
	C86.764984,63.095924 85.407455,62.823868 83.140480,62.299774 
M83.414291,92.707237 
	C79.430023,88.601784 75.737465,91.387215 71.181351,93.172333 
	C63.728569,93.675980 56.183678,94.822411 49.866989,90.079941 
	C46.724220,91.484016 43.899815,92.745857 40.741592,94.893654 
	C40.741592,101.434006 40.741592,107.974358 40.741592,114.670059 
	C46.149677,114.670059 51.007095,114.670059 55.765678,114.670059 
	C55.983421,114.097328 56.190830,113.801399 56.195213,113.502510 
	C56.253208,109.546150 56.282658,105.589378 56.971096,101.349846 
	C61.288116,100.972763 65.605133,100.595680 70.196907,100.647415 
	C70.674339,101.123131 71.151764,101.598846 71.695389,102.995659 
	C71.695389,106.899727 71.695389,110.803795 71.695389,114.941360 
	C76.659920,114.941360 80.799416,114.953232 84.938690,114.928749 
	C85.569885,114.925026 86.200081,114.753014 87.078323,114.621864 
	C87.164810,113.024567 87.303085,111.572578 87.311157,110.119881 
	C87.337952,105.295982 87.489532,100.460266 87.166389,95.657814 
	C87.104126,94.732498 85.110771,93.937126 83.414291,92.707237 
z"/>
<path fill="#17BCE1" opacity="1.000000" stroke="none" 
	d="
M47.994072,121.355705 
	C57.355560,120.939903 66.712852,120.890930 76.534271,120.912155 
	C75.952995,122.677284 75.097626,124.532959 73.825813,126.036346 
	C70.313591,130.188080 66.627357,134.192581 63.005596,138.620178 
	C52.980675,138.990860 42.960079,138.996689 32.471191,138.998138 
	C35.289257,135.685928 38.649757,132.447601 41.836308,129.046280 
	C44.013138,126.722740 45.947250,124.171799 47.994072,121.355705 
z"/>
<path fill="#01AEDE" opacity="1.000000" stroke="none" 
	d="
M93.680756,117.842789 
	C93.589180,109.330612 93.857040,100.699890 94.511398,91.810944 
	C94.933586,96.723434 94.969276,101.894150 95.010513,107.532578 
	C94.690765,111.241592 94.365479,114.482918 93.680756,117.842789 
z"/>
<path fill="#F8FCF6" opacity="1.000000" stroke="none" 
	d="
M52.998234,36.936882 
	C49.984165,36.880886 46.970100,36.824890 43.506126,36.792656 
	C43.393826,33.279297 43.731430,29.742178 44.361244,25.608843 
	C45.148590,24.025248 45.643719,23.037867 46.138847,22.050486 
	C48.901493,19.769892 51.664139,17.489298 54.709549,15.013376 
	C61.818569,12.296131 68.492485,12.371125 75.306107,16.072596 
	C83.757706,23.415739 85.882088,28.112822 84.635651,36.780685 
	C80.125999,36.780685 75.524345,36.780685 69.998367,36.781303 
	C63.715439,36.833576 58.356838,36.885227 52.998234,36.936882 
z"/>
<path fill="#15D1DD" opacity="1.000000" stroke="none" 
	d="
M52.993500,37.313690 
	C58.356838,36.885227 63.715439,36.833576 69.536407,36.858376 
	C68.338173,40.278610 66.716309,43.642380 65.004166,46.959557 
	C63.733540,49.421307 62.345703,51.822559 60.536873,54.623627 
	C54.376369,54.995300 48.689060,54.994110 43.001755,54.992916 
	C45.513245,50.982235 48.082745,47.006187 50.508045,42.944046 
	C51.496132,41.289097 52.171257,39.447292 52.993500,37.313690 
z"/>
<path fill="#00C3D9" opacity="1.000000" stroke="none" 
	d="
M42.776245,55.114960 
	C48.689060,54.994110 54.376369,54.995300 60.531532,54.992428 
	C70.018738,54.990555 79.038094,54.992752 88.525314,54.990166 
	C89.264824,55.200096 89.536461,55.414806 89.920273,55.867798 
	C74.325912,56.144314 58.619373,56.182545 42.447506,56.148144 
	C42.171700,55.796013 42.361217,55.516506 42.776245,55.114960 
z"/>
<path fill="#25C8DF" opacity="1.000000" stroke="none" 
	d="
M32.074745,91.174896 
	C32.995121,92.501106 34.653378,94.129471 34.726509,95.826157 
	C35.045643,103.230164 34.904339,110.653999 34.906822,118.539291 
	C34.262913,118.233109 33.642384,117.458267 33.013191,116.339272 
	C33.006248,108.975090 33.007961,101.955063 33.001286,94.466263 
	C32.689636,93.167824 32.386375,92.338158 32.074745,91.174896 
z"/>
<path fill="#17D6DC" opacity="1.000000" stroke="none" 
	d="
M45.755356,22.100471 
	C45.643719,23.037867 45.148590,24.025248 44.399368,25.235405 
	C44.554134,24.355606 44.962997,23.253031 45.755356,22.100471 
z"/>
<path fill="#00C3D9" opacity="1.000000" stroke="none" 
	d="
M39.871082,55.834854 
	C39.562542,56.121986 39.103596,56.170815 38.300285,56.170826 
	C38.544170,55.946854 39.132427,55.771702 39.871082,55.834854 
z"/>
<path fill="#17C5DF" opacity="1.000000" stroke="none" 
	d="
M88.214951,63.920189 
	C88.570747,64.696365 88.926537,65.472542 88.948975,66.599884 
	C83.023170,70.192688 79.253677,74.946312 76.999245,80.956543 
	C72.863289,89.404518 65.174347,87.507462 58.258945,86.989349 
	C56.407299,86.850624 54.733051,84.344078 53.089653,82.218353 
	C55.203915,78.772087 57.208534,76.033943 59.207146,73.291428 
	C61.471138,70.184761 63.729748,67.074158 66.459427,63.959789 
	C72.579323,63.940277 78.230499,63.926247 84.316513,63.942612 
	C85.905884,63.955402 87.060425,63.937798 88.214951,63.920189 
z"/>
<path fill="#17CCDE" opacity="1.000000" stroke="none" 
	d="
M65.990700,63.965271 
	C63.729748,67.074158 61.471138,70.184761 59.207146,73.291428 
	C57.208534,76.033943 55.203915,78.772087 53.057995,81.839485 
	C50.185036,80.780472 48.029556,80.142281 46.210129,83.886703 
	C44.452034,87.504898 40.771637,88.365471 37.196461,86.663544 
	C33.549393,84.927399 32.482986,81.859344 34.124741,77.912354 
	C35.972588,73.469879 37.592007,68.932404 40.016365,64.171539 
	C49.144863,63.926308 57.567780,63.945789 65.990700,63.965271 
z"/>
<path fill="#1BC4DF" opacity="1.000000" stroke="none" 
	d="
M41.075413,94.007698 
	C43.899815,92.745857 46.724220,91.484016 49.866989,90.079941 
	C56.183678,94.822411 63.728569,93.675980 71.534912,93.538773 
	C71.233040,96.009674 70.577599,98.114136 69.922157,100.218597 
	C65.605133,100.595680 61.288116,100.972763 56.324142,101.815018 
	C55.450237,103.227898 55.067844,104.167961 55.020805,105.124519 
	C54.624119,113.191162 54.642551,113.192009 46.433998,112.995270 
	C46.267872,112.991287 46.099239,112.975655 45.935719,112.996468 
	C42.841690,113.390175 41.721188,111.941994 41.992298,108.964645 
	C42.420269,104.264725 42.771500,99.556610 43.017174,94.844765 
	C43.029930,94.600159 41.752289,94.288261 41.075413,94.007698 
z"/>
<path fill="#16BCE0" opacity="1.000000" stroke="none" 
	d="
M70.059532,100.433006 
	C70.577599,98.114136 71.233040,96.009674 71.945892,93.547745 
	C75.737465,91.387215 79.430023,88.601784 83.787758,93.267456 
	C84.772705,97.450256 85.862976,101.067719 85.901810,104.696442 
	C86.000473,113.916039 87.591904,112.908241 77.401115,112.997795 
	C77.235313,112.999252 77.067123,112.978851 76.904022,112.999702 
	C73.794907,113.397285 72.934906,111.895195 72.916389,108.960426 
	C72.901901,106.662521 72.087944,104.369659 71.629189,102.074562 
	C71.151764,101.598846 70.674339,101.123131 70.059532,100.433006 
z"/>
<path fill="#1AC0E0" opacity="1.000000" stroke="none" 
	d="
M77.373032,81.052803 
	C79.253677,74.946312 83.023170,70.192688 89.015625,66.919792 
	C90.905113,70.579140 92.345100,74.290749 93.899101,77.953987 
	C95.242958,81.121857 95.041656,84.520439 91.903442,85.688812 
	C88.636223,86.905220 84.579941,87.810181 81.612999,83.984207 
	C80.671394,82.769974 79.054626,82.079315 77.373032,81.052803 
z"/>
<path fill="#36CDE0" opacity="1.000000" stroke="none" 
	d="
M66.459427,63.959789 
	C57.567780,63.945789 49.144863,63.926308 40.235611,63.888855 
	C40.950104,63.316608 42.147884,62.288467 43.352215,62.280735 
	C56.614384,62.195583 69.877571,62.269199 83.578674,62.653824 
	C83.965919,63.308437 83.920853,63.609886 83.881668,63.912216 
	C78.230499,63.926247 72.579323,63.940277 66.459427,63.959789 
z"/>
<path fill="#0CB5DF" opacity="1.000000" stroke="none" 
	d="
M71.662292,102.535110 
	C72.087944,104.369659 72.901901,106.662521 72.916389,108.960426 
	C72.934906,111.895195 73.794907,113.397285 76.904022,112.999702 
	C77.067123,112.978851 77.235313,112.999252 77.401115,112.997795 
	C87.591904,112.908241 86.000473,113.916039 85.901810,104.696442 
	C85.862976,101.067719 84.772705,97.450256 84.084732,93.454735 
	C85.110771,93.937126 87.104126,94.732498 87.166389,95.657814 
	C87.489532,100.460266 87.337952,105.295982 87.311157,110.119881 
	C87.303085,111.572578 87.164810,113.024567 87.078323,114.621864 
	C86.200081,114.753014 85.569885,114.925026 84.938690,114.928749 
	C80.799416,114.953232 76.659920,114.941360 71.695389,114.941360 
	C71.695389,110.803795 71.695389,106.899727 71.662292,102.535110 
z"/>
<path fill="#0ABDDD" opacity="1.000000" stroke="none" 
	d="
M40.908501,94.450676 
	C41.752289,94.288261 43.029930,94.600159 43.017174,94.844765 
	C42.771500,99.556610 42.420269,104.264725 41.992298,108.964645 
	C41.721188,111.941994 42.841690,113.390175 45.935719,112.996468 
	C46.099239,112.975655 46.267872,112.991287 46.433998,112.995270 
	C54.642551,113.192009 54.624119,113.191162 55.020805,105.124519 
	C55.067844,104.167961 55.450237,103.227898 55.998215,101.956451 
	C56.282658,105.589378 56.253208,109.546150 56.195213,113.502510 
	C56.190830,113.801399 55.983421,114.097328 55.765678,114.670059 
	C51.007095,114.670059 46.149677,114.670059 40.741592,114.670059 
	C40.741592,107.974358 40.741592,101.434006 40.908501,94.450676 
z"/>
<path fill="#1AC0E0" opacity="1.000000" stroke="none" 
	d="
M84.316513,63.942612 
	C83.920853,63.609886 83.965919,63.308437 84.033401,62.779842 
	C85.407455,62.823868 86.764984,63.095924 88.168732,63.644085 
	C87.060425,63.937798 85.905884,63.955402 84.316513,63.942612 
z"/>
</svg>